G04 Layer: TopLayer*
G04 EasyEDA Pro v3.2.148, 2026-09-03 21:18:04*
G04 Gerber Generator version 0.3*
G04 Scale: 100 percent, Rotated: No, Reflected: No*
G04 Dimensions in millimeters*
G04 Leading zeros omitted, absolute positions, 4 integers and 5 decimals*
G04 Generated by one-click*
G04 Object Configs: Pad,Via,Track,Text,Image,Dimension,BoardOutline,BoardCutout,CopperFilled,SolidRegion,FPCStiffener,Line,PlaneZone,ComponentProperty,ComponentSilkscreen,TearDrop*
G04 Layer Configs: 1,2,3,4,5,6,7,8,9,10,11,13,14,56*
G04 Copper Areas: 0*
%FSLAX45Y45*%
%MOMM*%
%ADD10C,0.29997*%
%ADD11R,0.75006X0.29997*%
%ADD12C,0.80797*%
%ADD13R,0.9X0.8*%
%ADD14R,1.25001X1.0*%
%ADD15R,0.86401X0.80648*%
%ADD16R,0.4592X0.3*%
%ADD17R,0.45001X0.3*%
%ADD18R,0.28001X0.5*%
%ADD19C,0.61*%
%ADD20C,0.25201*%
%ADD21C,0.254*%
G75*


G04 PolygonModel Start*
G54D10*
G01X8515706Y-4669993D02*
G01X8515706Y-410007D01*
G01X8575700Y-4669993D02*
G01X8575700Y-410007D01*
G01X8635695Y-4669993D02*
G01X8635695Y-410007D01*
G01X8695690Y-4669993D02*
G01X8695690Y-410007D01*
G01X8755685Y-4669993D02*
G01X8755685Y-410007D01*
G01X6525692Y-4699991D02*
G01X8485708Y-4699991D01*
G01X6525692Y-4759985D02*
G01X8485708Y-4759985D01*
G01X6525692Y-4820006D02*
G01X8485708Y-4820006D01*
G01X6525692Y-4880000D02*
G01X8485708Y-4880000D01*
G01X6525692Y-4939995D02*
G01X8485708Y-4939995D01*
G01X6525692Y-380009D02*
G01X8485708Y-380009D01*
G01X6525692Y-320015D02*
G01X8485708Y-320015D01*
G01X6525692Y-259994D02*
G01X8485708Y-259994D01*
G01X6525692Y-200000D02*
G01X8485708Y-200000D01*
G01X6525692Y-140005D02*
G01X8485708Y-140005D01*
G01X6495694Y-410007D02*
G02X6525692Y-380009I29997J0D01*
G01X6435700Y-410007D02*
G02X6525692Y-320015I89992J0D01*
G01X6375705Y-410007D02*
G02X6525692Y-259994I149987J25D01*
G01X6315710Y-410007D02*
G02X6525692Y-200000I210007J0D01*
G01X6255690Y-410007D02*
G02X6525692Y-140005I270002J0D01*
G01X6495694Y-4669993D02*
G03X6525692Y-4699991I29997J0D01*
G01X6435700Y-4669993D02*
G03X6525692Y-4759985I89992J0D01*
G01X6375705Y-4669993D02*
G03X6525692Y-4820006I149987J-25D01*
G01X6315710Y-4669993D02*
G03X6525692Y-4880000I210007J0D01*
G01X6255690Y-4669993D02*
G03X6525692Y-4939995I270002J0D01*
G01X8515706Y-4669993D02*
G02X8485708Y-4699991I-29997J0D01*
G01X8575700Y-4669993D02*
G02X8485708Y-4759985I-89992J0D01*
G01X8635695Y-4669993D02*
G02X8485708Y-4820006I-149987J-25D01*
G01X8695690Y-4669993D02*
G02X8485708Y-4880000I-210007J0D01*
G01X8755710Y-4669993D02*
G02X8485708Y-4939995I-270002J0D01*
G01X8515706Y-410007D02*
G03X8485708Y-380009I-29997J0D01*
G01X8575700Y-410007D02*
G03X8485708Y-320015I-89992J0D01*
G01X8635695Y-410007D02*
G03X8485708Y-259994I-149987J25D01*
G01X8695690Y-410007D02*
G03X8485708Y-200000I-210007J0D01*
G01X8755710Y-410007D02*
G03X8485708Y-140005I-270002J0D01*
G01X6495694Y-4669993D02*
G01X6495694Y-2540000D01*
G01X6435700Y-410007D02*
G01X6435700Y-2480005D01*
G01X6495694Y-2540000D02*
G01X6435700Y-2480005D01*
G01X6375705Y-4669993D02*
G01X6375705Y-2580005D01*
G01X6375705Y-2580005D02*
G01X6315710Y-2520010D01*
G01X6315710Y-2520010D02*
G01X6315710Y-410007D01*
G01X6435700Y-4669993D02*
G01X6435700Y-2559990D01*
G01X6435700Y-2559990D02*
G01X6375705Y-2499995D01*
G01X6375705Y-2499995D02*
G01X6375705Y-410007D01*
G01X6315710Y-4669993D02*
G01X6315710Y-2599995D01*
G01X6315710Y-2599995D02*
G01X6255690Y-2540000D01*
G01X6255690Y-2540000D02*
G01X6255690Y-410007D01*
G01X6495694Y-410007D02*
G01X6495694Y-2459990D01*
G01X6159500Y-2603500D02*
G01X6172200Y-2603500D01*
G01X6172200Y-2603500D02*
G01X6239205Y-2603500D01*
G01X6239205Y-2603500D02*
G01X6255690Y-2620010D01*
G01X6255690Y-2620010D02*
G01X6255690Y-4669993D01*
G01X6553200Y-2476500D02*
G01X6512204Y-2476500D01*
G01X6512204Y-2476500D02*
G01X6495694Y-2459990D01*

G04 Pad Start*
G54D11*
G01X6172200Y-2603500D03*
G54D12*
G01X6553200Y-2476500D03*
G54D13*
G01X5689600Y-2698598D03*
G01X5689600Y-2558593D03*
G54D14*
G01X4440702Y-2019290D03*
G01X4440702Y-1799275D03*
G54D15*
G01X5486400Y-2704236D03*
G01X5486400Y-2553564D03*
G54D17*
G01X5978195Y-2628900D03*
G54D18*
G01X5968187Y-2693899D03*
G01X5918200Y-2693899D03*
G01X5868187Y-2693899D03*
G54D17*
G01X5858205Y-2628900D03*
G54D18*
G01X5868213Y-2563901D03*
G01X5918200Y-2563901D03*
G01X5968187Y-2563901D03*
G04 Pad End*

G04 Via Start*
G54D19*
G01X6182588Y-2476505D03*
G04 Via End*

G04 Track Start*
G54D20*
G01X5968188Y-2693905D02*
G01X5918198Y-2693905D01*
G01X5918198Y-2731505D01*
G01X5892798Y-2756905D01*
G01X5747909Y-2756905D01*
G01X5689599Y-2698595D01*
G54D21*
G01X5689599Y-2698595D02*
G01X5492049Y-2698595D01*
G01X5486399Y-2704245D01*
G54D20*
G01X5968188Y-2563905D02*
G01X6095188Y-2563905D01*
G01X6182588Y-2476505D01*
G01X5918198Y-2563905D02*
G01X5918198Y-2526305D01*
G01X5892798Y-2500905D01*
G01X5747289Y-2500905D01*
G01X5689599Y-2558595D01*
G54D21*
G01X5689599Y-2558595D02*
G01X4930280Y-1799276D01*
G01X4440701Y-1799276D01*
G01X4440701Y-2019286D02*
G01X4952120Y-2019286D01*
G01X5486399Y-2553565D01*
G01X6172200Y-2603500D02*
G01X6146800Y-2628900D01*
G01X5978195Y-2628900D01*
G04 Track End*

M02*

