G04 Layer: DrillDrawingLayer*
G04 EasyEDA Pro v3.2.148, 2026-09-03 21:18:04*
G04 Gerber Generator version 0.3*
G04 Scale: 100 percent, Rotated: No, Reflected: No*
G04 Dimensions in millimeters*
G04 Leading zeros omitted, absolute positions, 4 integers and 5 decimals*
G04 Generated by one-click*
G04 Object Configs: Pad,Via,Track,Text,Image,Dimension,BoardOutline,BoardCutout,CopperFilled,SolidRegion,FPCStiffener,Line,PlaneZone,ComponentProperty,ComponentSilkscreen,TearDrop*
G04 Layer Configs: 1,2,3,4,5,6,7,8,9,10,11,13,14,56*
G04 Copper Areas: 0*
%FSLAX45Y45*%
%MOMM*%
%AMIconRect*4,1,4,0.28,-0.28,-0.28,-0.28,-0.28,0.28,0.28,0.28,0.28,-0.28,0*4,0,4,0.233333,-0.233333,0.233333,0.233333,-0.233333,0.233333,-0.233333,-0.233333,0.233333,-0.233333,0*%
%ADD10IconRect*%
%ADD11C,0.616X0.522667*%
%ADD12C,0.2032*%
%ADD13C,0.254*%
G75*


G04 Drill Drawing Start*
G54D10*
G01X6182588Y-2476505D03*
G54D11*
G01X6553200Y-2476500D03*
G04 Drill Drawing End*

G04 Text Start*
G54D12*
G01X11190446Y-221706D02*
G01X11190446Y-341848D01*
G01X11190446Y-221706D02*
G01X11236166Y-341848D01*
G01X11281886Y-221706D02*
G01X11236166Y-341848D01*
G01X11281886Y-221706D02*
G01X11281886Y-341848D01*
G01X11398218Y-261838D02*
G01X11398218Y-341848D01*
G01X11398218Y-278856D02*
G01X11386788Y-267426D01*
G01X11375358Y-261838D01*
G01X11358340Y-261838D01*
G01X11346910Y-267426D01*
G01X11335480Y-278856D01*
G01X11329638Y-296128D01*
G01X11329638Y-307558D01*
G01X11335480Y-324576D01*
G01X11346910Y-336006D01*
G01X11358340Y-341848D01*
G01X11375358Y-341848D01*
G01X11386788Y-336006D01*
G01X11398218Y-324576D01*
G01X11445970Y-261838D02*
G01X11445970Y-341848D01*
G01X11445970Y-296128D02*
G01X11451812Y-278856D01*
G01X11463242Y-267426D01*
G01X11474672Y-261838D01*
G01X11491690Y-261838D01*
G01X11539442Y-221706D02*
G01X11539442Y-341848D01*
G01X11596592Y-261838D02*
G01X11539442Y-318988D01*
G01X11562302Y-296128D02*
G01X11602434Y-341848D01*
G01X12727726Y-250408D02*
G01X12721884Y-238978D01*
G01X12710454Y-227548D01*
G01X12699024Y-221706D01*
G01X12676164Y-221706D01*
G01X12664734Y-227548D01*
G01X12653304Y-238978D01*
G01X12647716Y-250408D01*
G01X12641874Y-267426D01*
G01X12641874Y-296128D01*
G01X12647716Y-313146D01*
G01X12653304Y-324576D01*
G01X12664734Y-336006D01*
G01X12676164Y-341848D01*
G01X12699024Y-341848D01*
G01X12710454Y-336006D01*
G01X12721884Y-324576D01*
G01X12727726Y-313146D01*
G01X12804180Y-261838D02*
G01X12792750Y-267426D01*
G01X12781320Y-278856D01*
G01X12775478Y-296128D01*
G01X12775478Y-307558D01*
G01X12781320Y-324576D01*
G01X12792750Y-336006D01*
G01X12804180Y-341848D01*
G01X12821198Y-341848D01*
G01X12832628Y-336006D01*
G01X12844058Y-324576D01*
G01X12849900Y-307558D01*
G01X12849900Y-296128D01*
G01X12844058Y-278856D01*
G01X12832628Y-267426D01*
G01X12821198Y-261838D01*
G01X12804180Y-261838D01*
G01X12897652Y-261838D02*
G01X12897652Y-318988D01*
G01X12903494Y-336006D01*
G01X12914924Y-341848D01*
G01X12931942Y-341848D01*
G01X12943372Y-336006D01*
G01X12960644Y-318988D01*
G01X12960644Y-261838D02*
G01X12960644Y-341848D01*
G01X13008396Y-261838D02*
G01X13008396Y-341848D01*
G01X13008396Y-284698D02*
G01X13025668Y-267426D01*
G01X13037098Y-261838D01*
G01X13054116Y-261838D01*
G01X13065546Y-267426D01*
G01X13071388Y-284698D01*
G01X13071388Y-341848D01*
G01X13136412Y-221706D02*
G01X13136412Y-318988D01*
G01X13142000Y-336006D01*
G01X13153430Y-341848D01*
G01X13164860Y-341848D01*
G01X13119140Y-261838D02*
G01X13159272Y-261838D01*
G01X14136047Y-238978D02*
G01X14124617Y-227548D01*
G01X14107599Y-221706D01*
G01X14084739Y-221706D01*
G01X14067467Y-227548D01*
G01X14056037Y-238978D01*
G01X14056037Y-250408D01*
G01X14061879Y-261838D01*
G01X14067467Y-267426D01*
G01X14078897Y-273268D01*
G01X14113187Y-284698D01*
G01X14124617Y-290286D01*
G01X14130459Y-296128D01*
G01X14136047Y-307558D01*
G01X14136047Y-324576D01*
G01X14124617Y-336006D01*
G01X14107599Y-341848D01*
G01X14084739Y-341848D01*
G01X14067467Y-336006D01*
G01X14056037Y-324576D01*
G01X14183799Y-221706D02*
G01X14189641Y-227548D01*
G01X14195229Y-221706D01*
G01X14189641Y-216118D01*
G01X14183799Y-221706D01*
G01X14189641Y-261838D02*
G01X14189641Y-341848D01*
G01X14305973Y-261838D02*
G01X14242981Y-341848D01*
G01X14242981Y-261838D02*
G01X14305973Y-261838D01*
G01X14242981Y-341848D02*
G01X14305973Y-341848D01*
G01X14353725Y-296128D02*
G01X14422305Y-296128D01*
G01X14422305Y-284698D01*
G01X14416717Y-273268D01*
G01X14410875Y-267426D01*
G01X14399445Y-261838D01*
G01X14382427Y-261838D01*
G01X14370997Y-267426D01*
G01X14359567Y-278856D01*
G01X14353725Y-296128D01*
G01X14353725Y-307558D01*
G01X14359567Y-324576D01*
G01X14370997Y-336006D01*
G01X14382427Y-341848D01*
G01X14399445Y-341848D01*
G01X14410875Y-336006D01*
G01X14422305Y-324576D01*
G01X17744263Y-221706D02*
G01X17744263Y-341848D01*
G01X17744263Y-221706D02*
G01X17795825Y-221706D01*
G01X17812843Y-227548D01*
G01X17818685Y-233136D01*
G01X17824273Y-244566D01*
G01X17824273Y-261838D01*
G01X17818685Y-273268D01*
G01X17812843Y-278856D01*
G01X17795825Y-284698D01*
G01X17744263Y-284698D01*
G01X17872025Y-221706D02*
G01X17872025Y-341848D01*
G01X17988357Y-261838D02*
G01X17988357Y-341848D01*
G01X17988357Y-278856D02*
G01X17976927Y-267426D01*
G01X17965497Y-261838D01*
G01X17948479Y-261838D01*
G01X17937049Y-267426D01*
G01X17925619Y-278856D01*
G01X17919777Y-296128D01*
G01X17919777Y-307558D01*
G01X17925619Y-324576D01*
G01X17937049Y-336006D01*
G01X17948479Y-341848D01*
G01X17965497Y-341848D01*
G01X17976927Y-336006D01*
G01X17988357Y-324576D01*
G01X18053381Y-221706D02*
G01X18053381Y-318988D01*
G01X18058969Y-336006D01*
G01X18070399Y-341848D01*
G01X18081829Y-341848D01*
G01X18036109Y-261838D02*
G01X18076241Y-261838D01*
G01X18129581Y-296128D02*
G01X18198161Y-296128D01*
G01X18198161Y-284698D01*
G01X18192573Y-273268D01*
G01X18186731Y-267426D01*
G01X18175301Y-261838D01*
G01X18158283Y-261838D01*
G01X18146853Y-267426D01*
G01X18135423Y-278856D01*
G01X18129581Y-296128D01*
G01X18129581Y-307558D01*
G01X18135423Y-324576D01*
G01X18146853Y-336006D01*
G01X18158283Y-341848D01*
G01X18175301Y-341848D01*
G01X18186731Y-336006D01*
G01X18198161Y-324576D01*
G01X18314493Y-221706D02*
G01X18314493Y-341848D01*
G01X18314493Y-278856D02*
G01X18303063Y-267426D01*
G01X18291633Y-261838D01*
G01X18274615Y-261838D01*
G01X18263185Y-267426D01*
G01X18251755Y-278856D01*
G01X18245913Y-296128D01*
G01X18245913Y-307558D01*
G01X18251755Y-324576D01*
G01X18263185Y-336006D01*
G01X18274615Y-341848D01*
G01X18291633Y-341848D01*
G01X18303063Y-336006D01*
G01X18314493Y-324576D01*
G01X19285680Y-238978D02*
G01X19274250Y-227548D01*
G01X19257232Y-221706D01*
G01X19234372Y-221706D01*
G01X19217100Y-227548D01*
G01X19205670Y-238978D01*
G01X19205670Y-250408D01*
G01X19211512Y-261838D01*
G01X19217100Y-267426D01*
G01X19228530Y-273268D01*
G01X19262820Y-284698D01*
G01X19274250Y-290286D01*
G01X19280092Y-296128D01*
G01X19285680Y-307558D01*
G01X19285680Y-324576D01*
G01X19274250Y-336006D01*
G01X19257232Y-341848D01*
G01X19234372Y-341848D01*
G01X19217100Y-336006D01*
G01X19205670Y-324576D01*
G01X19333432Y-221706D02*
G01X19333432Y-341848D01*
G01X19333432Y-284698D02*
G01X19350704Y-267426D01*
G01X19362134Y-261838D01*
G01X19379152Y-261838D01*
G01X19390582Y-267426D01*
G01X19396424Y-284698D01*
G01X19396424Y-341848D01*
G01X19512756Y-261838D02*
G01X19512756Y-341848D01*
G01X19512756Y-278856D02*
G01X19501326Y-267426D01*
G01X19489896Y-261838D01*
G01X19472878Y-261838D01*
G01X19461448Y-267426D01*
G01X19450018Y-278856D01*
G01X19444176Y-296128D01*
G01X19444176Y-307558D01*
G01X19450018Y-324576D01*
G01X19461448Y-336006D01*
G01X19472878Y-341848D01*
G01X19489896Y-341848D01*
G01X19501326Y-336006D01*
G01X19512756Y-324576D01*
G01X19560508Y-261838D02*
G01X19560508Y-381726D01*
G01X19560508Y-278856D02*
G01X19571938Y-267426D01*
G01X19583368Y-261838D01*
G01X19600640Y-261838D01*
G01X19612070Y-267426D01*
G01X19623500Y-278856D01*
G01X19629088Y-296128D01*
G01X19629088Y-307558D01*
G01X19623500Y-324576D01*
G01X19612070Y-336006D01*
G01X19600640Y-341848D01*
G01X19583368Y-341848D01*
G01X19571938Y-336006D01*
G01X19560508Y-324576D01*
G01X19676840Y-296128D02*
G01X19745420Y-296128D01*
G01X19745420Y-284698D01*
G01X19739832Y-273268D01*
G01X19733990Y-267426D01*
G01X19722560Y-261838D01*
G01X19705542Y-261838D01*
G01X19694112Y-267426D01*
G01X19682682Y-278856D01*
G01X19676840Y-296128D01*
G01X19676840Y-307558D01*
G01X19682682Y-324576D01*
G01X19694112Y-336006D01*
G01X19705542Y-341848D01*
G01X19722560Y-341848D01*
G01X19733990Y-336006D01*
G01X19745420Y-324576D01*
G01X20636851Y-221706D02*
G01X20682571Y-341848D01*
G01X20728291Y-221706D02*
G01X20682571Y-341848D01*
G01X20776043Y-221706D02*
G01X20781885Y-227548D01*
G01X20787473Y-221706D01*
G01X20781885Y-216118D01*
G01X20776043Y-221706D01*
G01X20781885Y-261838D02*
G01X20781885Y-341848D01*
G01X20903805Y-261838D02*
G01X20903805Y-341848D01*
G01X20903805Y-278856D02*
G01X20892375Y-267426D01*
G01X20880945Y-261838D01*
G01X20863927Y-261838D01*
G01X20852497Y-267426D01*
G01X20841067Y-278856D01*
G01X20835225Y-296128D01*
G01X20835225Y-307558D01*
G01X20841067Y-324576D01*
G01X20852497Y-336006D01*
G01X20863927Y-341848D01*
G01X20880945Y-341848D01*
G01X20892375Y-336006D01*
G01X20903805Y-324576D01*
G01X21054427Y-198846D02*
G01X20951557Y-381726D01*
G01X21102179Y-221706D02*
G01X21102179Y-341848D01*
G01X21102179Y-221706D02*
G01X21153741Y-221706D01*
G01X21170759Y-227548D01*
G01X21176601Y-233136D01*
G01X21182189Y-244566D01*
G01X21182189Y-261838D01*
G01X21176601Y-273268D01*
G01X21170759Y-278856D01*
G01X21153741Y-284698D01*
G01X21102179Y-284698D01*
G01X21298521Y-261838D02*
G01X21298521Y-341848D01*
G01X21298521Y-278856D02*
G01X21287091Y-267426D01*
G01X21275661Y-261838D01*
G01X21258643Y-261838D01*
G01X21247213Y-267426D01*
G01X21235783Y-278856D01*
G01X21229941Y-296128D01*
G01X21229941Y-307558D01*
G01X21235783Y-324576D01*
G01X21247213Y-336006D01*
G01X21258643Y-341848D01*
G01X21275661Y-341848D01*
G01X21287091Y-336006D01*
G01X21298521Y-324576D01*
G01X21414853Y-221706D02*
G01X21414853Y-341848D01*
G01X21414853Y-278856D02*
G01X21403423Y-267426D01*
G01X21391993Y-261838D01*
G01X21374975Y-261838D01*
G01X21363545Y-267426D01*
G01X21352115Y-278856D01*
G01X21346273Y-296128D01*
G01X21346273Y-307558D01*
G01X21352115Y-324576D01*
G01X21363545Y-336006D01*
G01X21374975Y-341848D01*
G01X21391993Y-341848D01*
G01X21403423Y-336006D01*
G01X21414853Y-324576D01*
G01X22306030Y-221706D02*
G01X22306030Y-341848D01*
G01X22306030Y-221706D02*
G01X22357592Y-221706D01*
G01X22374610Y-227548D01*
G01X22380452Y-233136D01*
G01X22386040Y-244566D01*
G01X22386040Y-261838D01*
G01X22380452Y-273268D01*
G01X22374610Y-278856D01*
G01X22357592Y-284698D01*
G01X22306030Y-284698D01*
G01X22502372Y-261838D02*
G01X22502372Y-341848D01*
G01X22502372Y-278856D02*
G01X22490942Y-267426D01*
G01X22479512Y-261838D01*
G01X22462494Y-261838D01*
G01X22451064Y-267426D01*
G01X22439634Y-278856D01*
G01X22433792Y-296128D01*
G01X22433792Y-307558D01*
G01X22439634Y-324576D01*
G01X22451064Y-336006D01*
G01X22462494Y-341848D01*
G01X22479512Y-341848D01*
G01X22490942Y-336006D01*
G01X22502372Y-324576D01*
G01X22618704Y-221706D02*
G01X22618704Y-341848D01*
G01X22618704Y-278856D02*
G01X22607274Y-267426D01*
G01X22595844Y-261838D01*
G01X22578826Y-261838D01*
G01X22567396Y-267426D01*
G01X22555966Y-278856D01*
G01X22550124Y-296128D01*
G01X22550124Y-307558D01*
G01X22555966Y-324576D01*
G01X22567396Y-336006D01*
G01X22578826Y-341848D01*
G01X22595844Y-341848D01*
G01X22607274Y-336006D01*
G01X22618704Y-324576D01*
G01X22874482Y-238978D02*
G01X22863052Y-227548D01*
G01X22846034Y-221706D01*
G01X22823174Y-221706D01*
G01X22805902Y-227548D01*
G01X22794472Y-238978D01*
G01X22794472Y-250408D01*
G01X22800314Y-261838D01*
G01X22805902Y-267426D01*
G01X22817332Y-273268D01*
G01X22851622Y-284698D01*
G01X22863052Y-290286D01*
G01X22868894Y-296128D01*
G01X22874482Y-307558D01*
G01X22874482Y-324576D01*
G01X22863052Y-336006D01*
G01X22846034Y-341848D01*
G01X22823174Y-341848D01*
G01X22805902Y-336006D01*
G01X22794472Y-324576D01*
G01X22922234Y-221706D02*
G01X22922234Y-341848D01*
G01X22922234Y-284698D02*
G01X22939506Y-267426D01*
G01X22950936Y-261838D01*
G01X22967954Y-261838D01*
G01X22979384Y-267426D01*
G01X22985226Y-284698D01*
G01X22985226Y-341848D01*
G01X23101558Y-261838D02*
G01X23101558Y-341848D01*
G01X23101558Y-278856D02*
G01X23090128Y-267426D01*
G01X23078698Y-261838D01*
G01X23061680Y-261838D01*
G01X23050250Y-267426D01*
G01X23038820Y-278856D01*
G01X23032978Y-296128D01*
G01X23032978Y-307558D01*
G01X23038820Y-324576D01*
G01X23050250Y-336006D01*
G01X23061680Y-341848D01*
G01X23078698Y-341848D01*
G01X23090128Y-336006D01*
G01X23101558Y-324576D01*
G01X23149310Y-261838D02*
G01X23149310Y-381726D01*
G01X23149310Y-278856D02*
G01X23160740Y-267426D01*
G01X23172170Y-261838D01*
G01X23189442Y-261838D01*
G01X23200872Y-267426D01*
G01X23212302Y-278856D01*
G01X23217890Y-296128D01*
G01X23217890Y-307558D01*
G01X23212302Y-324576D01*
G01X23200872Y-336006D01*
G01X23189442Y-341848D01*
G01X23172170Y-341848D01*
G01X23160740Y-336006D01*
G01X23149310Y-324576D01*
G01X23265642Y-296128D02*
G01X23334222Y-296128D01*
G01X23334222Y-284698D01*
G01X23328634Y-273268D01*
G01X23322792Y-267426D01*
G01X23311362Y-261838D01*
G01X23294344Y-261838D01*
G01X23282914Y-267426D01*
G01X23271484Y-278856D01*
G01X23265642Y-296128D01*
G01X23265642Y-307558D01*
G01X23271484Y-324576D01*
G01X23282914Y-336006D01*
G01X23294344Y-341848D01*
G01X23311362Y-341848D01*
G01X23322792Y-336006D01*
G01X23334222Y-324576D01*
G01X24225399Y-221706D02*
G01X24225399Y-341848D01*
G01X24225399Y-341848D02*
G01X24293979Y-341848D01*
G01X24410311Y-261838D02*
G01X24410311Y-341848D01*
G01X24410311Y-278856D02*
G01X24398881Y-267426D01*
G01X24387451Y-261838D01*
G01X24370433Y-261838D01*
G01X24359003Y-267426D01*
G01X24347573Y-278856D01*
G01X24341731Y-296128D01*
G01X24341731Y-307558D01*
G01X24347573Y-324576D01*
G01X24359003Y-336006D01*
G01X24370433Y-341848D01*
G01X24387451Y-341848D01*
G01X24398881Y-336006D01*
G01X24410311Y-324576D01*
G01X24463905Y-261838D02*
G01X24498195Y-341848D01*
G01X24532485Y-261838D02*
G01X24498195Y-341848D01*
G01X24486765Y-364708D01*
G01X24475335Y-376138D01*
G01X24463905Y-381726D01*
G01X24458063Y-381726D01*
G01X24580237Y-296128D02*
G01X24648817Y-296128D01*
G01X24648817Y-284698D01*
G01X24643229Y-273268D01*
G01X24637387Y-267426D01*
G01X24625957Y-261838D01*
G01X24608939Y-261838D01*
G01X24597509Y-267426D01*
G01X24586079Y-278856D01*
G01X24580237Y-296128D01*
G01X24580237Y-307558D01*
G01X24586079Y-324576D01*
G01X24597509Y-336006D01*
G01X24608939Y-341848D01*
G01X24625957Y-341848D01*
G01X24637387Y-336006D01*
G01X24648817Y-324576D01*
G01X24696569Y-261838D02*
G01X24696569Y-341848D01*
G01X24696569Y-296128D02*
G01X24702411Y-278856D01*
G01X24713841Y-267426D01*
G01X24725271Y-261838D01*
G01X24742289Y-261838D01*
G01X24918057Y-221706D02*
G01X24918057Y-341848D01*
G01X24918057Y-221706D02*
G01X24969619Y-221706D01*
G01X24986637Y-227548D01*
G01X24992479Y-233136D01*
G01X24998067Y-244566D01*
G01X24998067Y-261838D01*
G01X24992479Y-273268D01*
G01X24986637Y-278856D01*
G01X24969619Y-284698D01*
G01X24918057Y-284698D01*
G01X25114399Y-261838D02*
G01X25114399Y-341848D01*
G01X25114399Y-278856D02*
G01X25102969Y-267426D01*
G01X25091539Y-261838D01*
G01X25074521Y-261838D01*
G01X25063091Y-267426D01*
G01X25051661Y-278856D01*
G01X25045819Y-296128D01*
G01X25045819Y-307558D01*
G01X25051661Y-324576D01*
G01X25063091Y-336006D01*
G01X25074521Y-341848D01*
G01X25091539Y-341848D01*
G01X25102969Y-336006D01*
G01X25114399Y-324576D01*
G01X25162151Y-221706D02*
G01X25167993Y-227548D01*
G01X25173581Y-221706D01*
G01X25167993Y-216118D01*
G01X25162151Y-221706D01*
G01X25167993Y-261838D02*
G01X25167993Y-341848D01*
G01X25221333Y-261838D02*
G01X25221333Y-341848D01*
G01X25221333Y-296128D02*
G01X25227175Y-278856D01*
G01X25238605Y-267426D01*
G01X25250035Y-261838D01*
G01X25267053Y-261838D01*
G01X12641874Y-825137D02*
G01X12653304Y-819549D01*
G01X12670576Y-802277D01*
G01X12670576Y-922419D01*
G01X14056037Y-825137D02*
G01X14067467Y-819549D01*
G01X14084739Y-802277D01*
G01X14084739Y-922419D01*
G01X14138333Y-830979D02*
G01X14138333Y-825137D01*
G01X14143921Y-813707D01*
G01X14149763Y-808119D01*
G01X14161193Y-802277D01*
G01X14184053Y-802277D01*
G01X14195483Y-808119D01*
G01X14201071Y-813707D01*
G01X14206913Y-825137D01*
G01X14206913Y-836567D01*
G01X14201071Y-847997D01*
G01X14189641Y-865269D01*
G01X14132491Y-922419D01*
G01X14212501Y-922419D01*
G01X14266095Y-893717D02*
G01X14260253Y-899559D01*
G01X14266095Y-905147D01*
G01X14271683Y-899559D01*
G01X14266095Y-893717D01*
G01X14353725Y-802277D02*
G01X14336707Y-808119D01*
G01X14325277Y-825137D01*
G01X14319435Y-853839D01*
G01X14319435Y-870857D01*
G01X14325277Y-899559D01*
G01X14336707Y-916577D01*
G01X14353725Y-922419D01*
G01X14365155Y-922419D01*
G01X14382427Y-916577D01*
G01X14393857Y-899559D01*
G01X14399445Y-870857D01*
G01X14399445Y-853839D01*
G01X14393857Y-825137D01*
G01X14382427Y-808119D01*
G01X14365155Y-802277D01*
G01X14353725Y-802277D01*
G01X14447197Y-842409D02*
G01X14447197Y-922419D01*
G01X14447197Y-865269D02*
G01X14464469Y-847997D01*
G01X14475899Y-842409D01*
G01X14492917Y-842409D01*
G01X14504347Y-847997D01*
G01X14510189Y-865269D01*
G01X14510189Y-922419D01*
G01X14510189Y-865269D02*
G01X14527207Y-847997D01*
G01X14538637Y-842409D01*
G01X14555909Y-842409D01*
G01X14567339Y-847997D01*
G01X14572927Y-865269D01*
G01X14572927Y-922419D01*
G01X14620679Y-802277D02*
G01X14626521Y-808119D01*
G01X14632109Y-802277D01*
G01X14626521Y-796689D01*
G01X14620679Y-802277D01*
G01X14626521Y-842409D02*
G01X14626521Y-922419D01*
G01X14679861Y-802277D02*
G01X14679861Y-922419D01*
G01X14767745Y-779417D02*
G01X14756315Y-790847D01*
G01X14744885Y-808119D01*
G01X14733455Y-830979D01*
G01X14727613Y-859427D01*
G01X14727613Y-882287D01*
G01X14733455Y-910989D01*
G01X14744885Y-933849D01*
G01X14756315Y-950867D01*
G01X14767745Y-962297D01*
G01X14849787Y-802277D02*
G01X14832769Y-808119D01*
G01X14821339Y-825137D01*
G01X14815497Y-853839D01*
G01X14815497Y-870857D01*
G01X14821339Y-899559D01*
G01X14832769Y-916577D01*
G01X14849787Y-922419D01*
G01X14861217Y-922419D01*
G01X14878489Y-916577D01*
G01X14889919Y-899559D01*
G01X14895507Y-870857D01*
G01X14895507Y-853839D01*
G01X14889919Y-825137D01*
G01X14878489Y-808119D01*
G01X14861217Y-802277D01*
G01X14849787Y-802277D01*
G01X14949101Y-893717D02*
G01X14943259Y-899559D01*
G01X14949101Y-905147D01*
G01X14954689Y-899559D01*
G01X14949101Y-893717D01*
G01X15013871Y-802277D02*
G01X15076863Y-802277D01*
G01X15042573Y-847997D01*
G01X15059591Y-847997D01*
G01X15071021Y-853839D01*
G01X15076863Y-859427D01*
G01X15082451Y-876699D01*
G01X15082451Y-888129D01*
G01X15076863Y-905147D01*
G01X15065433Y-916577D01*
G01X15048161Y-922419D01*
G01X15031143Y-922419D01*
G01X15013871Y-916577D01*
G01X15008283Y-910989D01*
G01X15002441Y-899559D01*
G01X15164493Y-802277D02*
G01X15147475Y-808119D01*
G01X15136045Y-825137D01*
G01X15130203Y-853839D01*
G01X15130203Y-870857D01*
G01X15136045Y-899559D01*
G01X15147475Y-916577D01*
G01X15164493Y-922419D01*
G01X15175923Y-922419D01*
G01X15193195Y-916577D01*
G01X15204625Y-899559D01*
G01X15210213Y-870857D01*
G01X15210213Y-853839D01*
G01X15204625Y-825137D01*
G01X15193195Y-808119D01*
G01X15175923Y-802277D01*
G01X15164493Y-802277D01*
G01X15326545Y-802277D02*
G01X15269395Y-802277D01*
G01X15263807Y-853839D01*
G01X15269395Y-847997D01*
G01X15286667Y-842409D01*
G01X15303685Y-842409D01*
G01X15320957Y-847997D01*
G01X15332387Y-859427D01*
G01X15337975Y-876699D01*
G01X15337975Y-888129D01*
G01X15332387Y-905147D01*
G01X15320957Y-916577D01*
G01X15303685Y-922419D01*
G01X15286667Y-922419D01*
G01X15269395Y-916577D01*
G01X15263807Y-910989D01*
G01X15257965Y-899559D01*
G01X15385727Y-842409D02*
G01X15385727Y-922419D01*
G01X15385727Y-865269D02*
G01X15402999Y-847997D01*
G01X15414429Y-842409D01*
G01X15431447Y-842409D01*
G01X15442877Y-847997D01*
G01X15448719Y-865269D01*
G01X15448719Y-922419D01*
G01X15448719Y-865269D02*
G01X15465737Y-847997D01*
G01X15477167Y-842409D01*
G01X15494439Y-842409D01*
G01X15505869Y-847997D01*
G01X15511457Y-865269D01*
G01X15511457Y-922419D01*
G01X15559209Y-842409D02*
G01X15559209Y-922419D01*
G01X15559209Y-865269D02*
G01X15576481Y-847997D01*
G01X15587911Y-842409D01*
G01X15604929Y-842409D01*
G01X15616359Y-847997D01*
G01X15622201Y-865269D01*
G01X15622201Y-922419D01*
G01X15622201Y-865269D02*
G01X15639219Y-847997D01*
G01X15650649Y-842409D01*
G01X15667921Y-842409D01*
G01X15679351Y-847997D01*
G01X15684939Y-865269D01*
G01X15684939Y-922419D01*
G01X15732691Y-779417D02*
G01X15744121Y-790847D01*
G01X15755551Y-808119D01*
G01X15766981Y-830979D01*
G01X15772823Y-859427D01*
G01X15772823Y-882287D01*
G01X15766981Y-910989D01*
G01X15755551Y-933849D01*
G01X15744121Y-950867D01*
G01X15732691Y-962297D01*
G01X17744263Y-802277D02*
G01X17744263Y-922419D01*
G01X17744263Y-802277D02*
G01X17795825Y-802277D01*
G01X17812843Y-808119D01*
G01X17818685Y-813707D01*
G01X17824273Y-825137D01*
G01X17824273Y-842409D01*
G01X17818685Y-853839D01*
G01X17812843Y-859427D01*
G01X17795825Y-865269D01*
G01X17744263Y-865269D01*
G01X17912157Y-802277D02*
G01X17912157Y-922419D01*
G01X17872025Y-802277D02*
G01X17952035Y-802277D01*
G01X17999787Y-802277D02*
G01X17999787Y-922419D01*
G01X18079797Y-802277D02*
G01X18079797Y-922419D01*
G01X17999787Y-859427D02*
G01X18079797Y-859427D01*
G01X19205670Y-802277D02*
G01X19205670Y-922419D01*
G01X19205670Y-802277D02*
G01X19257232Y-802277D01*
G01X19274250Y-808119D01*
G01X19280092Y-813707D01*
G01X19285680Y-825137D01*
G01X19285680Y-836567D01*
G01X19280092Y-847997D01*
G01X19274250Y-853839D01*
G01X19257232Y-859427D01*
G01X19205670Y-859427D01*
G01X19245802Y-859427D02*
G01X19285680Y-922419D01*
G01X19362134Y-842409D02*
G01X19350704Y-847997D01*
G01X19339274Y-859427D01*
G01X19333432Y-876699D01*
G01X19333432Y-888129D01*
G01X19339274Y-905147D01*
G01X19350704Y-916577D01*
G01X19362134Y-922419D01*
G01X19379152Y-922419D01*
G01X19390582Y-916577D01*
G01X19402012Y-905147D01*
G01X19407854Y-888129D01*
G01X19407854Y-876699D01*
G01X19402012Y-859427D01*
G01X19390582Y-847997D01*
G01X19379152Y-842409D01*
G01X19362134Y-842409D01*
G01X19455606Y-842409D02*
G01X19455606Y-899559D01*
G01X19461448Y-916577D01*
G01X19472878Y-922419D01*
G01X19489896Y-922419D01*
G01X19501326Y-916577D01*
G01X19518598Y-899559D01*
G01X19518598Y-842409D02*
G01X19518598Y-922419D01*
G01X19566350Y-842409D02*
G01X19566350Y-922419D01*
G01X19566350Y-865269D02*
G01X19583622Y-847997D01*
G01X19595052Y-842409D01*
G01X19612070Y-842409D01*
G01X19623500Y-847997D01*
G01X19629342Y-865269D01*
G01X19629342Y-922419D01*
G01X19745674Y-802277D02*
G01X19745674Y-922419D01*
G01X19745674Y-859427D02*
G01X19734244Y-847997D01*
G01X19722814Y-842409D01*
G01X19705796Y-842409D01*
G01X19694366Y-847997D01*
G01X19682936Y-859427D01*
G01X19677094Y-876699D01*
G01X19677094Y-888129D01*
G01X19682936Y-905147D01*
G01X19694366Y-916577D01*
G01X19705796Y-922419D01*
G01X19722814Y-922419D01*
G01X19734244Y-916577D01*
G01X19745674Y-905147D01*
G01X20636851Y-802277D02*
G01X20682571Y-922419D01*
G01X20728291Y-802277D02*
G01X20682571Y-922419D01*
G01X20776043Y-802277D02*
G01X20781885Y-808119D01*
G01X20787473Y-802277D01*
G01X20781885Y-796689D01*
G01X20776043Y-802277D01*
G01X20781885Y-842409D02*
G01X20781885Y-922419D01*
G01X20903805Y-842409D02*
G01X20903805Y-922419D01*
G01X20903805Y-859427D02*
G01X20892375Y-847997D01*
G01X20880945Y-842409D01*
G01X20863927Y-842409D01*
G01X20852497Y-847997D01*
G01X20841067Y-859427D01*
G01X20835225Y-876699D01*
G01X20835225Y-888129D01*
G01X20841067Y-905147D01*
G01X20852497Y-916577D01*
G01X20863927Y-922419D01*
G01X20880945Y-922419D01*
G01X20892375Y-916577D01*
G01X20903805Y-905147D01*
G01X24265531Y-802277D02*
G01X24265531Y-922419D01*
G01X24225399Y-802277D02*
G01X24305409Y-802277D01*
G01X24381863Y-842409D02*
G01X24370433Y-847997D01*
G01X24359003Y-859427D01*
G01X24353161Y-876699D01*
G01X24353161Y-888129D01*
G01X24359003Y-905147D01*
G01X24370433Y-916577D01*
G01X24381863Y-922419D01*
G01X24398881Y-922419D01*
G01X24410311Y-916577D01*
G01X24421741Y-905147D01*
G01X24427583Y-888129D01*
G01X24427583Y-876699D01*
G01X24421741Y-859427D01*
G01X24410311Y-847997D01*
G01X24398881Y-842409D01*
G01X24381863Y-842409D01*
G01X24475335Y-842409D02*
G01X24475335Y-962297D01*
G01X24475335Y-859427D02*
G01X24486765Y-847997D01*
G01X24498195Y-842409D01*
G01X24515467Y-842409D01*
G01X24526897Y-847997D01*
G01X24538327Y-859427D01*
G01X24543915Y-876699D01*
G01X24543915Y-888129D01*
G01X24538327Y-905147D01*
G01X24526897Y-916577D01*
G01X24515467Y-922419D01*
G01X24498195Y-922419D01*
G01X24486765Y-916577D01*
G01X24475335Y-905147D01*
G01X24719683Y-802277D02*
G01X24719683Y-922419D01*
G01X24719683Y-922419D02*
G01X24788263Y-922419D01*
G01X24904595Y-842409D02*
G01X24904595Y-922419D01*
G01X24904595Y-859427D02*
G01X24893165Y-847997D01*
G01X24881735Y-842409D01*
G01X24864717Y-842409D01*
G01X24853287Y-847997D01*
G01X24841857Y-859427D01*
G01X24836015Y-876699D01*
G01X24836015Y-888129D01*
G01X24841857Y-905147D01*
G01X24853287Y-916577D01*
G01X24864717Y-922419D01*
G01X24881735Y-922419D01*
G01X24893165Y-916577D01*
G01X24904595Y-905147D01*
G01X24958189Y-842409D02*
G01X24992479Y-922419D01*
G01X25026769Y-842409D02*
G01X24992479Y-922419D01*
G01X24981049Y-945279D01*
G01X24969619Y-956709D01*
G01X24958189Y-962297D01*
G01X24952347Y-962297D01*
G01X25074521Y-876699D02*
G01X25143101Y-876699D01*
G01X25143101Y-865269D01*
G01X25137513Y-853839D01*
G01X25131671Y-847997D01*
G01X25120241Y-842409D01*
G01X25103223Y-842409D01*
G01X25091793Y-847997D01*
G01X25080363Y-859427D01*
G01X25074521Y-876699D01*
G01X25074521Y-888129D01*
G01X25080363Y-905147D01*
G01X25091793Y-916577D01*
G01X25103223Y-922419D01*
G01X25120241Y-922419D01*
G01X25131671Y-916577D01*
G01X25143101Y-905147D01*
G01X25190853Y-842409D02*
G01X25190853Y-922419D01*
G01X25190853Y-876699D02*
G01X25196695Y-859427D01*
G01X25208125Y-847997D01*
G01X25219555Y-842409D01*
G01X25236573Y-842409D01*
G01X25284325Y-870857D02*
G01X25387195Y-870857D01*
G01X25434947Y-802277D02*
G01X25434947Y-922419D01*
G01X25434947Y-802277D02*
G01X25486509Y-802277D01*
G01X25503527Y-808119D01*
G01X25509369Y-813707D01*
G01X25514957Y-825137D01*
G01X25514957Y-836567D01*
G01X25509369Y-847997D01*
G01X25503527Y-853839D01*
G01X25486509Y-859427D01*
G01X25434947Y-859427D02*
G01X25486509Y-859427D01*
G01X25503527Y-865269D01*
G01X25509369Y-870857D01*
G01X25514957Y-882287D01*
G01X25514957Y-899559D01*
G01X25509369Y-910989D01*
G01X25503527Y-916577D01*
G01X25486509Y-922419D01*
G01X25434947Y-922419D01*
G01X25591411Y-842409D02*
G01X25579981Y-847997D01*
G01X25568551Y-859427D01*
G01X25562709Y-876699D01*
G01X25562709Y-888129D01*
G01X25568551Y-905147D01*
G01X25579981Y-916577D01*
G01X25591411Y-922419D01*
G01X25608429Y-922419D01*
G01X25619859Y-916577D01*
G01X25631289Y-905147D01*
G01X25637131Y-888129D01*
G01X25637131Y-876699D01*
G01X25631289Y-859427D01*
G01X25619859Y-847997D01*
G01X25608429Y-842409D01*
G01X25591411Y-842409D01*
G01X25702155Y-802277D02*
G01X25702155Y-899559D01*
G01X25707743Y-916577D01*
G01X25719173Y-922419D01*
G01X25730603Y-922419D01*
G01X25684883Y-842409D02*
G01X25725015Y-842409D01*
G01X25795627Y-802277D02*
G01X25795627Y-899559D01*
G01X25801215Y-916577D01*
G01X25812645Y-922419D01*
G01X25824075Y-922419D01*
G01X25778355Y-842409D02*
G01X25818487Y-842409D01*
G01X25900529Y-842409D02*
G01X25889099Y-847997D01*
G01X25877669Y-859427D01*
G01X25871827Y-876699D01*
G01X25871827Y-888129D01*
G01X25877669Y-905147D01*
G01X25889099Y-916577D01*
G01X25900529Y-922419D01*
G01X25917547Y-922419D01*
G01X25928977Y-916577D01*
G01X25940407Y-905147D01*
G01X25946249Y-888129D01*
G01X25946249Y-876699D01*
G01X25940407Y-859427D01*
G01X25928977Y-847997D01*
G01X25917547Y-842409D01*
G01X25900529Y-842409D01*
G01X25994001Y-842409D02*
G01X25994001Y-922419D01*
G01X25994001Y-865269D02*
G01X26011273Y-847997D01*
G01X26022703Y-842409D01*
G01X26039721Y-842409D01*
G01X26051151Y-847997D01*
G01X26056993Y-865269D01*
G01X26056993Y-922419D01*
G01X26056993Y-865269D02*
G01X26074011Y-847997D01*
G01X26085441Y-842409D01*
G01X26102713Y-842409D01*
G01X26114143Y-847997D01*
G01X26119731Y-865269D01*
G01X26119731Y-922419D01*
G01X26295499Y-802277D02*
G01X26295499Y-922419D01*
G01X26295499Y-922419D02*
G01X26364079Y-922419D01*
G01X26480411Y-842409D02*
G01X26480411Y-922419D01*
G01X26480411Y-859427D02*
G01X26468981Y-847997D01*
G01X26457551Y-842409D01*
G01X26440533Y-842409D01*
G01X26429103Y-847997D01*
G01X26417673Y-859427D01*
G01X26411831Y-876699D01*
G01X26411831Y-888129D01*
G01X26417673Y-905147D01*
G01X26429103Y-916577D01*
G01X26440533Y-922419D01*
G01X26457551Y-922419D01*
G01X26468981Y-916577D01*
G01X26480411Y-905147D01*
G01X26534005Y-842409D02*
G01X26568295Y-922419D01*
G01X26602585Y-842409D02*
G01X26568295Y-922419D01*
G01X26556865Y-945279D01*
G01X26545435Y-956709D01*
G01X26534005Y-962297D01*
G01X26528163Y-962297D01*
G01X26650337Y-876699D02*
G01X26718917Y-876699D01*
G01X26718917Y-865269D01*
G01X26713329Y-853839D01*
G01X26707487Y-847997D01*
G01X26696057Y-842409D01*
G01X26679039Y-842409D01*
G01X26667609Y-847997D01*
G01X26656179Y-859427D01*
G01X26650337Y-876699D01*
G01X26650337Y-888129D01*
G01X26656179Y-905147D01*
G01X26667609Y-916577D01*
G01X26679039Y-922419D01*
G01X26696057Y-922419D01*
G01X26707487Y-916577D01*
G01X26718917Y-905147D01*
G01X26766669Y-842409D02*
G01X26766669Y-922419D01*
G01X26766669Y-876699D02*
G01X26772511Y-859427D01*
G01X26783941Y-847997D01*
G01X26795371Y-842409D01*
G01X26812389Y-842409D01*
G01X12641874Y-1405709D02*
G01X12653304Y-1400121D01*
G01X12670576Y-1382849D01*
G01X12670576Y-1502991D01*
G01X14056037Y-1405709D02*
G01X14067467Y-1400121D01*
G01X14084739Y-1382849D01*
G01X14084739Y-1502991D01*
G01X14132491Y-1405709D02*
G01X14143921Y-1400121D01*
G01X14161193Y-1382849D01*
G01X14161193Y-1502991D01*
G01X14214787Y-1474289D02*
G01X14208945Y-1480131D01*
G01X14214787Y-1485719D01*
G01X14220375Y-1480131D01*
G01X14214787Y-1474289D01*
G01X14296829Y-1382849D02*
G01X14279557Y-1388691D01*
G01X14273969Y-1400121D01*
G01X14273969Y-1411551D01*
G01X14279557Y-1422981D01*
G01X14290987Y-1428569D01*
G01X14313847Y-1434411D01*
G01X14331119Y-1439999D01*
G01X14342549Y-1451429D01*
G01X14348137Y-1462859D01*
G01X14348137Y-1480131D01*
G01X14342549Y-1491561D01*
G01X14336707Y-1497149D01*
G01X14319689Y-1502991D01*
G01X14296829Y-1502991D01*
G01X14279557Y-1497149D01*
G01X14273969Y-1491561D01*
G01X14268127Y-1480131D01*
G01X14268127Y-1462859D01*
G01X14273969Y-1451429D01*
G01X14285399Y-1439999D01*
G01X14302417Y-1434411D01*
G01X14325277Y-1428569D01*
G01X14336707Y-1422981D01*
G01X14342549Y-1411551D01*
G01X14342549Y-1400121D01*
G01X14336707Y-1388691D01*
G01X14319689Y-1382849D01*
G01X14296829Y-1382849D01*
G01X14395889Y-1422981D02*
G01X14458881Y-1502991D01*
G01X14458881Y-1422981D02*
G01X14395889Y-1502991D01*
G01X14506633Y-1405709D02*
G01X14518063Y-1400121D01*
G01X14535335Y-1382849D01*
G01X14535335Y-1502991D01*
G01X14583087Y-1405709D02*
G01X14594517Y-1400121D01*
G01X14611789Y-1382849D01*
G01X14611789Y-1502991D01*
G01X14665383Y-1474289D02*
G01X14659541Y-1480131D01*
G01X14665383Y-1485719D01*
G01X14670971Y-1480131D01*
G01X14665383Y-1474289D01*
G01X14747425Y-1382849D02*
G01X14730153Y-1388691D01*
G01X14724565Y-1400121D01*
G01X14724565Y-1411551D01*
G01X14730153Y-1422981D01*
G01X14741583Y-1428569D01*
G01X14764443Y-1434411D01*
G01X14781715Y-1439999D01*
G01X14793145Y-1451429D01*
G01X14798733Y-1462859D01*
G01X14798733Y-1480131D01*
G01X14793145Y-1491561D01*
G01X14787303Y-1497149D01*
G01X14770285Y-1502991D01*
G01X14747425Y-1502991D01*
G01X14730153Y-1497149D01*
G01X14724565Y-1491561D01*
G01X14718723Y-1480131D01*
G01X14718723Y-1462859D01*
G01X14724565Y-1451429D01*
G01X14735995Y-1439999D01*
G01X14753013Y-1434411D01*
G01X14775873Y-1428569D01*
G01X14787303Y-1422981D01*
G01X14793145Y-1411551D01*
G01X14793145Y-1400121D01*
G01X14787303Y-1388691D01*
G01X14770285Y-1382849D01*
G01X14747425Y-1382849D01*
G01X14846485Y-1422981D02*
G01X14846485Y-1502991D01*
G01X14846485Y-1445841D02*
G01X14863757Y-1428569D01*
G01X14875187Y-1422981D01*
G01X14892205Y-1422981D01*
G01X14903635Y-1428569D01*
G01X14909477Y-1445841D01*
G01X14909477Y-1502991D01*
G01X14909477Y-1445841D02*
G01X14926495Y-1428569D01*
G01X14937925Y-1422981D01*
G01X14955197Y-1422981D01*
G01X14966627Y-1428569D01*
G01X14972215Y-1445841D01*
G01X14972215Y-1502991D01*
G01X15019967Y-1382849D02*
G01X15025809Y-1388691D01*
G01X15031397Y-1382849D01*
G01X15025809Y-1377261D01*
G01X15019967Y-1382849D01*
G01X15025809Y-1422981D02*
G01X15025809Y-1502991D01*
G01X15079149Y-1382849D02*
G01X15079149Y-1502991D01*
G01X15167033Y-1359989D02*
G01X15155603Y-1371419D01*
G01X15144173Y-1388691D01*
G01X15132743Y-1411551D01*
G01X15126901Y-1439999D01*
G01X15126901Y-1462859D01*
G01X15132743Y-1491561D01*
G01X15144173Y-1514421D01*
G01X15155603Y-1531439D01*
G01X15167033Y-1542869D01*
G01X15249075Y-1382849D02*
G01X15232057Y-1388691D01*
G01X15220627Y-1405709D01*
G01X15214785Y-1434411D01*
G01X15214785Y-1451429D01*
G01X15220627Y-1480131D01*
G01X15232057Y-1497149D01*
G01X15249075Y-1502991D01*
G01X15260505Y-1502991D01*
G01X15277777Y-1497149D01*
G01X15289207Y-1480131D01*
G01X15294795Y-1451429D01*
G01X15294795Y-1434411D01*
G01X15289207Y-1405709D01*
G01X15277777Y-1388691D01*
G01X15260505Y-1382849D01*
G01X15249075Y-1382849D01*
G01X15348389Y-1474289D02*
G01X15342547Y-1480131D01*
G01X15348389Y-1485719D01*
G01X15353977Y-1480131D01*
G01X15348389Y-1474289D01*
G01X15413159Y-1382849D02*
G01X15476151Y-1382849D01*
G01X15441861Y-1428569D01*
G01X15458879Y-1428569D01*
G01X15470309Y-1434411D01*
G01X15476151Y-1439999D01*
G01X15481739Y-1457271D01*
G01X15481739Y-1468701D01*
G01X15476151Y-1485719D01*
G01X15464721Y-1497149D01*
G01X15447449Y-1502991D01*
G01X15430431Y-1502991D01*
G01X15413159Y-1497149D01*
G01X15407571Y-1491561D01*
G01X15401729Y-1480131D01*
G01X15563781Y-1382849D02*
G01X15546763Y-1388691D01*
G01X15535333Y-1405709D01*
G01X15529491Y-1434411D01*
G01X15529491Y-1451429D01*
G01X15535333Y-1480131D01*
G01X15546763Y-1497149D01*
G01X15563781Y-1502991D01*
G01X15575211Y-1502991D01*
G01X15592483Y-1497149D01*
G01X15603913Y-1480131D01*
G01X15609501Y-1451429D01*
G01X15609501Y-1434411D01*
G01X15603913Y-1405709D01*
G01X15592483Y-1388691D01*
G01X15575211Y-1382849D01*
G01X15563781Y-1382849D01*
G01X15691543Y-1382849D02*
G01X15674525Y-1388691D01*
G01X15663095Y-1405709D01*
G01X15657253Y-1434411D01*
G01X15657253Y-1451429D01*
G01X15663095Y-1480131D01*
G01X15674525Y-1497149D01*
G01X15691543Y-1502991D01*
G01X15702973Y-1502991D01*
G01X15720245Y-1497149D01*
G01X15731675Y-1480131D01*
G01X15737263Y-1451429D01*
G01X15737263Y-1434411D01*
G01X15731675Y-1405709D01*
G01X15720245Y-1388691D01*
G01X15702973Y-1382849D01*
G01X15691543Y-1382849D01*
G01X15785015Y-1422981D02*
G01X15848007Y-1502991D01*
G01X15848007Y-1422981D02*
G01X15785015Y-1502991D01*
G01X15930049Y-1382849D02*
G01X15913031Y-1388691D01*
G01X15901601Y-1405709D01*
G01X15895759Y-1434411D01*
G01X15895759Y-1451429D01*
G01X15901601Y-1480131D01*
G01X15913031Y-1497149D01*
G01X15930049Y-1502991D01*
G01X15941479Y-1502991D01*
G01X15958751Y-1497149D01*
G01X15970181Y-1480131D01*
G01X15975769Y-1451429D01*
G01X15975769Y-1434411D01*
G01X15970181Y-1405709D01*
G01X15958751Y-1388691D01*
G01X15941479Y-1382849D01*
G01X15930049Y-1382849D01*
G01X16029363Y-1474289D02*
G01X16023521Y-1480131D01*
G01X16029363Y-1485719D01*
G01X16034951Y-1480131D01*
G01X16029363Y-1474289D01*
G01X16094133Y-1382849D02*
G01X16157125Y-1382849D01*
G01X16122835Y-1428569D01*
G01X16139853Y-1428569D01*
G01X16151283Y-1434411D01*
G01X16157125Y-1439999D01*
G01X16162713Y-1457271D01*
G01X16162713Y-1468701D01*
G01X16157125Y-1485719D01*
G01X16145695Y-1497149D01*
G01X16128423Y-1502991D01*
G01X16111405Y-1502991D01*
G01X16094133Y-1497149D01*
G01X16088545Y-1491561D01*
G01X16082703Y-1480131D01*
G01X16244755Y-1382849D02*
G01X16227737Y-1388691D01*
G01X16216307Y-1405709D01*
G01X16210465Y-1434411D01*
G01X16210465Y-1451429D01*
G01X16216307Y-1480131D01*
G01X16227737Y-1497149D01*
G01X16244755Y-1502991D01*
G01X16256185Y-1502991D01*
G01X16273457Y-1497149D01*
G01X16284887Y-1480131D01*
G01X16290475Y-1451429D01*
G01X16290475Y-1434411D01*
G01X16284887Y-1405709D01*
G01X16273457Y-1388691D01*
G01X16256185Y-1382849D01*
G01X16244755Y-1382849D01*
G01X16372517Y-1382849D02*
G01X16355499Y-1388691D01*
G01X16344069Y-1405709D01*
G01X16338227Y-1434411D01*
G01X16338227Y-1451429D01*
G01X16344069Y-1480131D01*
G01X16355499Y-1497149D01*
G01X16372517Y-1502991D01*
G01X16383947Y-1502991D01*
G01X16401219Y-1497149D01*
G01X16412649Y-1480131D01*
G01X16418237Y-1451429D01*
G01X16418237Y-1434411D01*
G01X16412649Y-1405709D01*
G01X16401219Y-1388691D01*
G01X16383947Y-1382849D01*
G01X16372517Y-1382849D01*
G01X16465989Y-1422981D02*
G01X16465989Y-1502991D01*
G01X16465989Y-1445841D02*
G01X16483261Y-1428569D01*
G01X16494691Y-1422981D01*
G01X16511709Y-1422981D01*
G01X16523139Y-1428569D01*
G01X16528981Y-1445841D01*
G01X16528981Y-1502991D01*
G01X16528981Y-1445841D02*
G01X16545999Y-1428569D01*
G01X16557429Y-1422981D01*
G01X16574701Y-1422981D01*
G01X16586131Y-1428569D01*
G01X16591719Y-1445841D01*
G01X16591719Y-1502991D01*
G01X16639471Y-1422981D02*
G01X16639471Y-1502991D01*
G01X16639471Y-1445841D02*
G01X16656743Y-1428569D01*
G01X16668173Y-1422981D01*
G01X16685191Y-1422981D01*
G01X16696621Y-1428569D01*
G01X16702463Y-1445841D01*
G01X16702463Y-1502991D01*
G01X16702463Y-1445841D02*
G01X16719481Y-1428569D01*
G01X16730911Y-1422981D01*
G01X16748183Y-1422981D01*
G01X16759613Y-1428569D01*
G01X16765201Y-1445841D01*
G01X16765201Y-1502991D01*
G01X16812953Y-1359989D02*
G01X16824383Y-1371419D01*
G01X16835813Y-1388691D01*
G01X16847243Y-1411551D01*
G01X16853085Y-1439999D01*
G01X16853085Y-1462859D01*
G01X16847243Y-1491561D01*
G01X16835813Y-1514421D01*
G01X16824383Y-1531439D01*
G01X16812953Y-1542869D01*
G01X17744263Y-1382849D02*
G01X17744263Y-1502991D01*
G01X17744263Y-1382849D02*
G01X17795825Y-1382849D01*
G01X17812843Y-1388691D01*
G01X17818685Y-1394279D01*
G01X17824273Y-1405709D01*
G01X17824273Y-1422981D01*
G01X17818685Y-1434411D01*
G01X17812843Y-1439999D01*
G01X17795825Y-1445841D01*
G01X17744263Y-1445841D01*
G01X17912157Y-1382849D02*
G01X17912157Y-1502991D01*
G01X17872025Y-1382849D02*
G01X17952035Y-1382849D01*
G01X17999787Y-1382849D02*
G01X17999787Y-1502991D01*
G01X18079797Y-1382849D02*
G01X18079797Y-1502991D01*
G01X17999787Y-1439999D02*
G01X18079797Y-1439999D01*
G01X19205670Y-1382849D02*
G01X19205670Y-1502991D01*
G01X19205670Y-1382849D02*
G01X19257232Y-1382849D01*
G01X19274250Y-1388691D01*
G01X19280092Y-1394279D01*
G01X19285680Y-1405709D01*
G01X19285680Y-1417139D01*
G01X19280092Y-1428569D01*
G01X19274250Y-1434411D01*
G01X19257232Y-1439999D01*
G01X19205670Y-1439999D01*
G01X19245802Y-1439999D02*
G01X19285680Y-1502991D01*
G01X19362134Y-1422981D02*
G01X19350704Y-1428569D01*
G01X19339274Y-1439999D01*
G01X19333432Y-1457271D01*
G01X19333432Y-1468701D01*
G01X19339274Y-1485719D01*
G01X19350704Y-1497149D01*
G01X19362134Y-1502991D01*
G01X19379152Y-1502991D01*
G01X19390582Y-1497149D01*
G01X19402012Y-1485719D01*
G01X19407854Y-1468701D01*
G01X19407854Y-1457271D01*
G01X19402012Y-1439999D01*
G01X19390582Y-1428569D01*
G01X19379152Y-1422981D01*
G01X19362134Y-1422981D01*
G01X19455606Y-1422981D02*
G01X19455606Y-1480131D01*
G01X19461448Y-1497149D01*
G01X19472878Y-1502991D01*
G01X19489896Y-1502991D01*
G01X19501326Y-1497149D01*
G01X19518598Y-1480131D01*
G01X19518598Y-1422981D02*
G01X19518598Y-1502991D01*
G01X19566350Y-1422981D02*
G01X19566350Y-1502991D01*
G01X19566350Y-1445841D02*
G01X19583622Y-1428569D01*
G01X19595052Y-1422981D01*
G01X19612070Y-1422981D01*
G01X19623500Y-1428569D01*
G01X19629342Y-1445841D01*
G01X19629342Y-1502991D01*
G01X19745674Y-1382849D02*
G01X19745674Y-1502991D01*
G01X19745674Y-1439999D02*
G01X19734244Y-1428569D01*
G01X19722814Y-1422981D01*
G01X19705796Y-1422981D01*
G01X19694366Y-1428569D01*
G01X19682936Y-1439999D01*
G01X19677094Y-1457271D01*
G01X19677094Y-1468701D01*
G01X19682936Y-1485719D01*
G01X19694366Y-1497149D01*
G01X19705796Y-1502991D01*
G01X19722814Y-1502991D01*
G01X19734244Y-1497149D01*
G01X19745674Y-1485719D01*
G01X20636851Y-1382849D02*
G01X20636851Y-1502991D01*
G01X20636851Y-1382849D02*
G01X20688413Y-1382849D01*
G01X20705431Y-1388691D01*
G01X20711273Y-1394279D01*
G01X20716861Y-1405709D01*
G01X20716861Y-1422981D01*
G01X20711273Y-1434411D01*
G01X20705431Y-1439999D01*
G01X20688413Y-1445841D01*
G01X20636851Y-1445841D01*
G01X20833193Y-1422981D02*
G01X20833193Y-1502991D01*
G01X20833193Y-1439999D02*
G01X20821763Y-1428569D01*
G01X20810333Y-1422981D01*
G01X20793315Y-1422981D01*
G01X20781885Y-1428569D01*
G01X20770455Y-1439999D01*
G01X20764613Y-1457271D01*
G01X20764613Y-1468701D01*
G01X20770455Y-1485719D01*
G01X20781885Y-1497149D01*
G01X20793315Y-1502991D01*
G01X20810333Y-1502991D01*
G01X20821763Y-1497149D01*
G01X20833193Y-1485719D01*
G01X20949525Y-1382849D02*
G01X20949525Y-1502991D01*
G01X20949525Y-1439999D02*
G01X20938095Y-1428569D01*
G01X20926665Y-1422981D01*
G01X20909647Y-1422981D01*
G01X20898217Y-1428569D01*
G01X20886787Y-1439999D01*
G01X20880945Y-1457271D01*
G01X20880945Y-1468701D01*
G01X20886787Y-1485719D01*
G01X20898217Y-1497149D01*
G01X20909647Y-1502991D01*
G01X20926665Y-1502991D01*
G01X20938095Y-1497149D01*
G01X20949525Y-1485719D01*
G01X22306030Y-1382849D02*
G01X22306030Y-1502991D01*
G01X22306030Y-1382849D02*
G01X22357592Y-1382849D01*
G01X22374610Y-1388691D01*
G01X22380452Y-1394279D01*
G01X22386040Y-1405709D01*
G01X22386040Y-1417139D01*
G01X22380452Y-1428569D01*
G01X22374610Y-1434411D01*
G01X22357592Y-1439999D01*
G01X22306030Y-1439999D01*
G01X22346162Y-1439999D02*
G01X22386040Y-1502991D01*
G01X22462494Y-1422981D02*
G01X22451064Y-1428569D01*
G01X22439634Y-1439999D01*
G01X22433792Y-1457271D01*
G01X22433792Y-1468701D01*
G01X22439634Y-1485719D01*
G01X22451064Y-1497149D01*
G01X22462494Y-1502991D01*
G01X22479512Y-1502991D01*
G01X22490942Y-1497149D01*
G01X22502372Y-1485719D01*
G01X22508214Y-1468701D01*
G01X22508214Y-1457271D01*
G01X22502372Y-1439999D01*
G01X22490942Y-1428569D01*
G01X22479512Y-1422981D01*
G01X22462494Y-1422981D01*
G01X22555966Y-1422981D02*
G01X22555966Y-1480131D01*
G01X22561808Y-1497149D01*
G01X22573238Y-1502991D01*
G01X22590256Y-1502991D01*
G01X22601686Y-1497149D01*
G01X22618958Y-1480131D01*
G01X22618958Y-1422981D02*
G01X22618958Y-1502991D01*
G01X22666710Y-1422981D02*
G01X22666710Y-1502991D01*
G01X22666710Y-1445841D02*
G01X22683982Y-1428569D01*
G01X22695412Y-1422981D01*
G01X22712430Y-1422981D01*
G01X22723860Y-1428569D01*
G01X22729702Y-1445841D01*
G01X22729702Y-1502991D01*
G01X22846034Y-1382849D02*
G01X22846034Y-1502991D01*
G01X22846034Y-1439999D02*
G01X22834604Y-1428569D01*
G01X22823174Y-1422981D01*
G01X22806156Y-1422981D01*
G01X22794726Y-1428569D01*
G01X22783296Y-1439999D01*
G01X22777454Y-1457271D01*
G01X22777454Y-1468701D01*
G01X22783296Y-1485719D01*
G01X22794726Y-1497149D01*
G01X22806156Y-1502991D01*
G01X22823174Y-1502991D01*
G01X22834604Y-1497149D01*
G01X22846034Y-1485719D01*
G01X24265531Y-1382849D02*
G01X24265531Y-1502991D01*
G01X24225399Y-1382849D02*
G01X24305409Y-1382849D01*
G01X24381863Y-1422981D02*
G01X24370433Y-1428569D01*
G01X24359003Y-1439999D01*
G01X24353161Y-1457271D01*
G01X24353161Y-1468701D01*
G01X24359003Y-1485719D01*
G01X24370433Y-1497149D01*
G01X24381863Y-1502991D01*
G01X24398881Y-1502991D01*
G01X24410311Y-1497149D01*
G01X24421741Y-1485719D01*
G01X24427583Y-1468701D01*
G01X24427583Y-1457271D01*
G01X24421741Y-1439999D01*
G01X24410311Y-1428569D01*
G01X24398881Y-1422981D01*
G01X24381863Y-1422981D01*
G01X24475335Y-1422981D02*
G01X24475335Y-1542869D01*
G01X24475335Y-1439999D02*
G01X24486765Y-1428569D01*
G01X24498195Y-1422981D01*
G01X24515467Y-1422981D01*
G01X24526897Y-1428569D01*
G01X24538327Y-1439999D01*
G01X24543915Y-1457271D01*
G01X24543915Y-1468701D01*
G01X24538327Y-1485719D01*
G01X24526897Y-1497149D01*
G01X24515467Y-1502991D01*
G01X24498195Y-1502991D01*
G01X24486765Y-1497149D01*
G01X24475335Y-1485719D01*
G01X24719683Y-1382849D02*
G01X24719683Y-1502991D01*
G01X24719683Y-1502991D02*
G01X24788263Y-1502991D01*
G01X24904595Y-1422981D02*
G01X24904595Y-1502991D01*
G01X24904595Y-1439999D02*
G01X24893165Y-1428569D01*
G01X24881735Y-1422981D01*
G01X24864717Y-1422981D01*
G01X24853287Y-1428569D01*
G01X24841857Y-1439999D01*
G01X24836015Y-1457271D01*
G01X24836015Y-1468701D01*
G01X24841857Y-1485719D01*
G01X24853287Y-1497149D01*
G01X24864717Y-1502991D01*
G01X24881735Y-1502991D01*
G01X24893165Y-1497149D01*
G01X24904595Y-1485719D01*
G01X24958189Y-1422981D02*
G01X24992479Y-1502991D01*
G01X25026769Y-1422981D02*
G01X24992479Y-1502991D01*
G01X24981049Y-1525851D01*
G01X24969619Y-1537281D01*
G01X24958189Y-1542869D01*
G01X24952347Y-1542869D01*
G01X25074521Y-1457271D02*
G01X25143101Y-1457271D01*
G01X25143101Y-1445841D01*
G01X25137513Y-1434411D01*
G01X25131671Y-1428569D01*
G01X25120241Y-1422981D01*
G01X25103223Y-1422981D01*
G01X25091793Y-1428569D01*
G01X25080363Y-1439999D01*
G01X25074521Y-1457271D01*
G01X25074521Y-1468701D01*
G01X25080363Y-1485719D01*
G01X25091793Y-1497149D01*
G01X25103223Y-1502991D01*
G01X25120241Y-1502991D01*
G01X25131671Y-1497149D01*
G01X25143101Y-1485719D01*
G01X25190853Y-1422981D02*
G01X25190853Y-1502991D01*
G01X25190853Y-1457271D02*
G01X25196695Y-1439999D01*
G01X25208125Y-1428569D01*
G01X25219555Y-1422981D01*
G01X25236573Y-1422981D01*
G01X25284325Y-1451429D02*
G01X25387195Y-1451429D01*
G01X25434947Y-1382849D02*
G01X25434947Y-1502991D01*
G01X25434947Y-1382849D02*
G01X25486509Y-1382849D01*
G01X25503527Y-1388691D01*
G01X25509369Y-1394279D01*
G01X25514957Y-1405709D01*
G01X25514957Y-1417139D01*
G01X25509369Y-1428569D01*
G01X25503527Y-1434411D01*
G01X25486509Y-1439999D01*
G01X25434947Y-1439999D02*
G01X25486509Y-1439999D01*
G01X25503527Y-1445841D01*
G01X25509369Y-1451429D01*
G01X25514957Y-1462859D01*
G01X25514957Y-1480131D01*
G01X25509369Y-1491561D01*
G01X25503527Y-1497149D01*
G01X25486509Y-1502991D01*
G01X25434947Y-1502991D01*
G01X25591411Y-1422981D02*
G01X25579981Y-1428569D01*
G01X25568551Y-1439999D01*
G01X25562709Y-1457271D01*
G01X25562709Y-1468701D01*
G01X25568551Y-1485719D01*
G01X25579981Y-1497149D01*
G01X25591411Y-1502991D01*
G01X25608429Y-1502991D01*
G01X25619859Y-1497149D01*
G01X25631289Y-1485719D01*
G01X25637131Y-1468701D01*
G01X25637131Y-1457271D01*
G01X25631289Y-1439999D01*
G01X25619859Y-1428569D01*
G01X25608429Y-1422981D01*
G01X25591411Y-1422981D01*
G01X25702155Y-1382849D02*
G01X25702155Y-1480131D01*
G01X25707743Y-1497149D01*
G01X25719173Y-1502991D01*
G01X25730603Y-1502991D01*
G01X25684883Y-1422981D02*
G01X25725015Y-1422981D01*
G01X25795627Y-1382849D02*
G01X25795627Y-1480131D01*
G01X25801215Y-1497149D01*
G01X25812645Y-1502991D01*
G01X25824075Y-1502991D01*
G01X25778355Y-1422981D02*
G01X25818487Y-1422981D01*
G01X25900529Y-1422981D02*
G01X25889099Y-1428569D01*
G01X25877669Y-1439999D01*
G01X25871827Y-1457271D01*
G01X25871827Y-1468701D01*
G01X25877669Y-1485719D01*
G01X25889099Y-1497149D01*
G01X25900529Y-1502991D01*
G01X25917547Y-1502991D01*
G01X25928977Y-1497149D01*
G01X25940407Y-1485719D01*
G01X25946249Y-1468701D01*
G01X25946249Y-1457271D01*
G01X25940407Y-1439999D01*
G01X25928977Y-1428569D01*
G01X25917547Y-1422981D01*
G01X25900529Y-1422981D01*
G01X25994001Y-1422981D02*
G01X25994001Y-1502991D01*
G01X25994001Y-1445841D02*
G01X26011273Y-1428569D01*
G01X26022703Y-1422981D01*
G01X26039721Y-1422981D01*
G01X26051151Y-1428569D01*
G01X26056993Y-1445841D01*
G01X26056993Y-1502991D01*
G01X26056993Y-1445841D02*
G01X26074011Y-1428569D01*
G01X26085441Y-1422981D01*
G01X26102713Y-1422981D01*
G01X26114143Y-1428569D01*
G01X26119731Y-1445841D01*
G01X26119731Y-1502991D01*
G01X26295499Y-1382849D02*
G01X26295499Y-1502991D01*
G01X26295499Y-1502991D02*
G01X26364079Y-1502991D01*
G01X26480411Y-1422981D02*
G01X26480411Y-1502991D01*
G01X26480411Y-1439999D02*
G01X26468981Y-1428569D01*
G01X26457551Y-1422981D01*
G01X26440533Y-1422981D01*
G01X26429103Y-1428569D01*
G01X26417673Y-1439999D01*
G01X26411831Y-1457271D01*
G01X26411831Y-1468701D01*
G01X26417673Y-1485719D01*
G01X26429103Y-1497149D01*
G01X26440533Y-1502991D01*
G01X26457551Y-1502991D01*
G01X26468981Y-1497149D01*
G01X26480411Y-1485719D01*
G01X26534005Y-1422981D02*
G01X26568295Y-1502991D01*
G01X26602585Y-1422981D02*
G01X26568295Y-1502991D01*
G01X26556865Y-1525851D01*
G01X26545435Y-1537281D01*
G01X26534005Y-1542869D01*
G01X26528163Y-1542869D01*
G01X26650337Y-1457271D02*
G01X26718917Y-1457271D01*
G01X26718917Y-1445841D01*
G01X26713329Y-1434411D01*
G01X26707487Y-1428569D01*
G01X26696057Y-1422981D01*
G01X26679039Y-1422981D01*
G01X26667609Y-1428569D01*
G01X26656179Y-1439999D01*
G01X26650337Y-1457271D01*
G01X26650337Y-1468701D01*
G01X26656179Y-1485719D01*
G01X26667609Y-1497149D01*
G01X26679039Y-1502991D01*
G01X26696057Y-1502991D01*
G01X26707487Y-1497149D01*
G01X26718917Y-1485719D01*
G01X26766669Y-1422981D02*
G01X26766669Y-1502991D01*
G01X26766669Y-1457271D02*
G01X26772511Y-1439999D01*
G01X26783941Y-1428569D01*
G01X26795371Y-1422981D01*
G01X26812389Y-1422981D01*

G04 Image Start*
G36*
G01X11348269Y-1610299D02*
G01X11340529Y-1610887D01*
G01X11332686Y-1611086D01*
G01X11324843Y-1610887D01*
G01X11317102Y-1610299D01*
G01X11309475Y-1609330D01*
G01X11301970Y-1607990D01*
G01X11287364Y-1604235D01*
G01X11273362Y-1599110D01*
G01X11260040Y-1592693D01*
G01X11247474Y-1585060D01*
G01X11235742Y-1576287D01*
G01X11224920Y-1566452D01*
G01X11215084Y-1555629D01*
G01X11206311Y-1543897D01*
G01X11198678Y-1531332D01*
G01X11192261Y-1518010D01*
G01X11187137Y-1504008D01*
G01X11183382Y-1489402D01*
G01X11182042Y-1481896D01*
G01X11181072Y-1474269D01*
G01X11180484Y-1466529D01*
G01X11180286Y-1458686D01*
G01X11205686Y-1458686D01*
G01X11206343Y-1471652D01*
G01X11208270Y-1484248D01*
G01X11211405Y-1496410D01*
G01X11215682Y-1508072D01*
G01X11221037Y-1519172D01*
G01X11227405Y-1529643D01*
G01X11234723Y-1539423D01*
G01X11242925Y-1548446D01*
G01X11251949Y-1556649D01*
G01X11261728Y-1563966D01*
G01X11272200Y-1570335D01*
G01X11283299Y-1575690D01*
G01X11294962Y-1579966D01*
G01X11307123Y-1583101D01*
G01X11307123Y-1583101D01*
G01X11319719Y-1585029D01*
G01X11332686Y-1585686D01*
G01X11345652Y-1585029D01*
G01X11358248Y-1583101D01*
G01X11370410Y-1579966D01*
G01X11382072Y-1575690D01*
G01X11393172Y-1570335D01*
G01X11403643Y-1563966D01*
G01X11413423Y-1556649D01*
G01X11422446Y-1548446D01*
G01X11430649Y-1539423D01*
G01X11437966Y-1529643D01*
G01X11444335Y-1519172D01*
G01X11449690Y-1508072D01*
G01X11453966Y-1496410D01*
G01X11457101Y-1484248D01*
G01X11459029Y-1471652D01*
G01X11459686Y-1458686D01*
G01X11459029Y-1445719D01*
G01X11457101Y-1433123D01*
G01X11453966Y-1420962D01*
G01X11449690Y-1409299D01*
G01X11444335Y-1398200D01*
G01X11437966Y-1387728D01*
G01X11430649Y-1377949D01*
G01X11422446Y-1368925D01*
G01X11413423Y-1360723D01*
G01X11403643Y-1353405D01*
G01X11393172Y-1347037D01*
G01X11382072Y-1341682D01*
G01X11370410Y-1337405D01*
G01X11358248Y-1334271D01*
G01X11345652Y-1332343D01*
G01X11332686Y-1331686D01*
G01X11319719Y-1332343D01*
G01X11307123Y-1334271D01*
G01X11294962Y-1337405D01*
G01X11283299Y-1341682D01*
G01X11272200Y-1347037D01*
G01X11261728Y-1353405D01*
G01X11251949Y-1360723D01*
G01X11242925Y-1368925D01*
G01X11234723Y-1377949D01*
G01X11227405Y-1387728D01*
G01X11221037Y-1398200D01*
G01X11215682Y-1409299D01*
G01X11211405Y-1420962D01*
G01X11208270Y-1433123D01*
G01X11206343Y-1445719D01*
G01X11205686Y-1458686D01*
G01X11180286Y-1458686D01*
G01X11180484Y-1450843D01*
G01X11181072Y-1443102D01*
G01X11182042Y-1435475D01*
G01X11183382Y-1427970D01*
G01X11187137Y-1413364D01*
G01X11192261Y-1399362D01*
G01X11198678Y-1386040D01*
G01X11206311Y-1373474D01*
G01X11215084Y-1361742D01*
G01X11224920Y-1350920D01*
G01X11235742Y-1341084D01*
G01X11247474Y-1332311D01*
G01X11260040Y-1324678D01*
G01X11273362Y-1318261D01*
G01X11287364Y-1313137D01*
G01X11301970Y-1309382D01*
G01X11309475Y-1308042D01*
G01X11317102Y-1307072D01*
G01X11324843Y-1306484D01*
G01X11332686Y-1306286D01*
G01X11340529Y-1306484D01*
G01X11348269Y-1307072D01*
G01X11355896Y-1308042D01*
G01X11363402Y-1309382D01*
G01X11378008Y-1313137D01*
G01X11392010Y-1318261D01*
G01X11405332Y-1324678D01*
G01X11417897Y-1332311D01*
G01X11429629Y-1341084D01*
G01X11440452Y-1350920D01*
G01X11450287Y-1361742D01*
G01X11459060Y-1373474D01*
G01X11466693Y-1386040D01*
G01X11473110Y-1399362D01*
G01X11478235Y-1413364D01*
G01X11481990Y-1427970D01*
G01X11483330Y-1435475D01*
G01X11484299Y-1443102D01*
G01X11484887Y-1450843D01*
G01X11485086Y-1458686D01*
G01X11484887Y-1466529D01*
G01X11484299Y-1474269D01*
G01X11483330Y-1481896D01*
G01X11481990Y-1489402D01*
G01X11478235Y-1504008D01*
G01X11473110Y-1518010D01*
G01X11466693Y-1531332D01*
G01X11459060Y-1543897D01*
G01X11450287Y-1555629D01*
G01X11440452Y-1566452D01*
G01X11429629Y-1576287D01*
G01X11417897Y-1585060D01*
G01X11405332Y-1592693D01*
G01X11392010Y-1599110D01*
G01X11378008Y-1604235D01*
G01X11363402Y-1607990D01*
G01X11355896Y-1609330D01*
G01X11348269Y-1610299D01*
G37*
G36*
G01X11180286Y-725714D02*
G01X11459686Y-725714D01*
G01X11459686Y-1005114D01*
G01X11180286Y-1005114D01*
G01X11180286Y-751114D01*
G01X11205686Y-751114D01*
G01X11205686Y-979714D01*
G01X11434286Y-979714D01*
G01X11434286Y-751114D01*
G01X11434286Y-751114D01*
G01X11205686Y-751114D01*
G01X11180286Y-751114D01*
G01X11180286Y-725714D01*
G37*

G04 PolygonModel Start*
G54D13*
G01X10890000Y-1741714D02*
G01X27403121Y-1741714D01*
G01X10890000Y-1161143D02*
G01X27403121Y-1161143D01*
G01X10890000Y-580571D02*
G01X27403121Y-580571D01*
G01X10890000Y0D02*
G01X27403121Y0D01*
G01X10890000Y0D02*
G01X10890000Y-1716314D01*
G01X12341429Y0D02*
G01X12341429Y-1716314D01*
G01X13755592Y0D02*
G01X13755592Y-1716314D01*
G01X17443817Y0D02*
G01X17443817Y-1716314D01*
G01X18905224Y0D02*
G01X18905224Y-1716314D01*
G01X20336405Y0D02*
G01X20336405Y-1716314D01*
G01X22005584Y0D02*
G01X22005584Y-1716314D01*
G01X23924953Y0D02*
G01X23924953Y-1716314D01*
G01X27403121Y0D02*
G01X27403121Y-1716314D01*

M02*

